<svg version="1.1" xmlns="http://www.w3.org/2000/svg" xmlns:xlink="http://www.w3.org/1999/xlink" width="1116" height="1596"><defs/><g><g transform="translate(-350,-990) scale(1,1)"><rect fill="#C0C0C0" stroke="none" x="367" y="1511" width="438.4" height="15" opacity="0.2"/></g><g transform="translate(-350,-990) scale(1,1)"><rect fill="#C0C0C0" stroke="none" x="367" y="1525" width="1096" height="482" opacity="0.2"/></g><g transform="translate(-350,-990) scale(1,1)"><rect fill="#ffffff" stroke="none" x="360" y="1519" width="1096" height="481"/></g><g transform="translate(-350,-990) scale(1,1)"><path fill="none" stroke="#000000" d="M 360 1519 L 1456 1519 L 1456 2000 L 360 2000 L 360 1519 Z Z" stroke-miterlimit="10"/></g><g transform="translate(-350,-990) scale(1,1)"><rect fill="#ffffff" stroke="none" x="360" y="1504" width="438.4" height="15"/></g><g transform="translate(-350,-990) scale(1,1)"><path fill="none" stroke="#000000" d="M 360 1504 L 798.4 1504 L 798.4 1519 L 360 1519 L 360 1504 Z Z" stroke-miterlimit="10"/></g><g transform="translate(-350,-990) scale(1,1)"><rect fill="#ffffff" stroke="none" x="360" y="1518" width="1096" height="482"/></g><g transform="translate(-350,-990) scale(1,1)"><path fill="none" stroke="#000000" d="M 360 1518 L 1456 1518 L 1456 2000 L 360 2000 L 360 1518 Z Z" stroke-miterlimit="10"/></g><g transform="translate(-350,-990) scale(1,1)"><g><path fill="none" stroke="none"/><text fill="#000000" stroke="none" font-family="Arial" font-size="20px" font-style="normal" font-weight="bold" text-decoration="none" x="847.6240234375" y="1543">Identity.Core</text></g></g><g transform="translate(-350,-990) scale(1,1)"><rect fill="#C0C0C0" stroke="none" x="551" y="1703" width="216" height="96" opacity="0.2"/></g><g transform="translate(-350,-990) scale(1,1)"><rect fill="#ffffff" stroke="none" x="544" y="1696" width="216" height="96"/></g><g transform="translate(-350,-990) scale(1,1)"><path fill="none" stroke="#000000" d="M 544 1696 L 760 1696 L 760 1792 L 544 1792 L 544 1696 Z Z" stroke-miterlimit="10"/></g><g transform="translate(-350,-990) scale(1,1)"><path fill="none" stroke="#000000" d="M 544 1728 L 760 1728" stroke-miterlimit="10"/></g><g transform="translate(-350,-990) scale(1,1)"><path fill="none" stroke="#000000" d="M 544 1738 L 760 1738" stroke-miterlimit="10"/></g><g transform="translate(-350,-990) scale(1,1)"><g><path fill="none" stroke="none"/><text fill="#000000" stroke="none" font-family="Arial" font-size="20px" font-style="normal" font-weight="bold" text-decoration="none" x="588.640625" y="1719.5">UserManager</text></g></g><g transform="translate(-350,-990) scale(1,1)"><rect fill="#C0C0C0" stroke="none" x="1103" y="1615" width="184" height="96" opacity="0.2"/></g><g transform="translate(-350,-990) scale(1,1)"><rect fill="#ffffff" stroke="none" x="1096" y="1608" width="184" height="96"/></g><g transform="translate(-350,-990) scale(1,1)"><path fill="none" stroke="#000000" d="M 1096 1608 L 1280 1608 L 1280 1704 L 1096 1704 L 1096 1608 Z Z" stroke-miterlimit="10"/></g><g transform="translate(-350,-990) scale(1,1)"><path fill="none" stroke="#000000" d="M 1096 1640 L 1280 1640" stroke-miterlimit="10"/></g><g transform="translate(-350,-990) scale(1,1)"><path fill="none" stroke="#000000" d="M 1096 1650 L 1280 1650" stroke-miterlimit="10"/></g><g transform="translate(-350,-990) scale(1,1)"><g><path fill="none" stroke="none"/><text fill="#000000" stroke="none" font-family="Arial" font-size="20px" font-style="normal" font-weight="bold" text-decoration="none" x="1125.20703125" y="1632">RoleManager</text></g></g><g transform="translate(-350,-990) scale(1,1)"><path fill="none" stroke="#000000" d="M 606 1793 L 510.611328125 1885.6409254807693" stroke-miterlimit="10"/></g><g transform="translate(-350,-990) scale(1,1)"><path fill="none" stroke="#000000" d="M 494.18083095918996 1880.5584670782448 A 11.5 11.5 0 0 1 503.81916904081004 1901.4415329217552" stroke-miterlimit="10"/></g><g transform="translate(-350,-990) scale(1,1)"><g><path fill="none" stroke="none"/><text fill="#000000" stroke="none" font-family="Arial" font-size="20px" font-style="normal" font-weight="bold" text-decoration="none" x="415.185546875" y="1927">IPasswordHasher</text></g></g><g transform="translate(-350,-990) scale(1,1)"><path fill="#C0C0C0" stroke="none" d="M 668.529296875 1898.5 C 668.529296875 1892.1487248 673.678021675 1887 680.029296875 1887 C 686.380572075 1887 691.529296875 1892.1487248 691.529296875 1898.5 C 691.529296875 1904.8512752 686.380572075 1910 680.029296875 1910 C 673.678021675 1910 668.529296875 1904.8512752 668.529296875 1898.5 Z" opacity="0.2"/></g><g transform="translate(-350,-990) scale(1,1)"><path fill="none" stroke="#000000" d="M 662.0901420724191 1894.6366193091935 A 11.5 11.5 0 0 1 683.9098579275809 1887.3633806908065" stroke-miterlimit="10"/></g><g transform="translate(-350,-990) scale(1,1)"><path fill="#ffffff" stroke="none" d="M 664.529296875 1891.5 C 664.529296875 1886.8055792 668.334876075 1883 673.029296875 1883 C 677.723717675 1883 681.529296875 1886.8055792 681.529296875 1891.5 C 681.529296875 1896.1944208 677.723717675 1900 673.029296875 1900 C 668.334876075 1900 664.529296875 1896.1944208 664.529296875 1891.5 Z"/></g><g transform="translate(-350,-990) scale(1,1)"><path fill="none" stroke="#000000" d="M 664.529296875 1891.5 C 664.529296875 1886.8055792 668.334876075 1883 673.029296875 1883 C 677.723717675 1883 681.529296875 1886.8055792 681.529296875 1891.5 C 681.529296875 1896.1944208 677.723717675 1900 673.029296875 1900 C 668.334876075 1900 664.529296875 1896.1944208 664.529296875 1891.5 Z" stroke-miterlimit="10"/></g><g transform="translate(-350,-990) scale(1,1)"><g><path fill="none" stroke="none"/><text fill="#000000" stroke="none" font-family="Arial" font-size="20px" font-style="normal" font-weight="bold" text-decoration="none" x="622.453125" y="1926.5">IUserStore</text></g></g><g transform="translate(-350,-990) scale(1,1)"><path fill="none" stroke="#000000" d="M 658 1793 L 669.3333333333334 1880" stroke-miterlimit="10"/></g><g transform="translate(-350,-990) scale(1,1)"><path fill="none" stroke="#000000" d="M 895.8407070291802 1902.0575253978695 A 11.5 11.5 0 0 1 902.1592929708198 1879.9424746021305" stroke-miterlimit="10"/></g><g transform="translate(-350,-990) scale(1,1)"><g><path fill="none" stroke="none"/><text fill="#000000" stroke="none" font-family="Arial" font-size="20px" font-style="normal" font-weight="bold" text-decoration="none" x="832.728515625" y="1927">IUserValidator</text></g></g><g transform="translate(-350,-990) scale(1,1)"><path fill="none" stroke="#000000" d="M 726 1793 L 888.4794921875 1887.994140625" stroke-miterlimit="10"/></g><g transform="translate(-350,-990) scale(1,1)"><path fill="#ffffff" stroke="none" d="M 896 1760 L 984 1760 L 994 1770 L 994 1783 L 896 1783 L 896 1760"/></g><g transform="translate(-350,-990) scale(1,1)"><path fill="none" stroke="#000000" d="M 896 1760 L 984 1760 L 994 1770 L 994 1783 L 896 1783 L 896 1760 L 896 1760" stroke-miterlimit="10"/></g><g transform="translate(-350,-990) scale(1,1)"><path fill="none" stroke="#000000" d="M 984 1760 L 984 1770 L 994 1770 L 984 1760" stroke-miterlimit="10"/></g><g transform="translate(-350,-990) scale(1,1)"><g><path fill="none" stroke="none"/><text fill="#000000" stroke="none" font-family="Arial" font-size="13px" font-style="normal" font-weight="normal" text-decoration="none" x="901" y="1775">IEnumerable</text></g></g><g transform="translate(-350,-990) scale(1,1)"><path fill="none" stroke="#000000" d="M 807 1840 L 919 1785" stroke-miterlimit="10" stroke-dasharray="3"/></g><g transform="translate(-350,-990) scale(1,1)"><path fill="none" stroke="#000000" d="M 1074.8682720163547 1882.8682720163547 A 11.5 11.5 0 0 1 1091.1317279836453 1899.1317279836453" stroke-miterlimit="10"/></g><g transform="translate(-350,-990) scale(1,1)"><g><path fill="none" stroke="none"/><text fill="#000000" stroke="none" font-family="Arial" font-size="20px" font-style="normal" font-weight="bold" text-decoration="none" x="1016.5966796875" y="1927">IRoleValidator</text></g></g><g transform="translate(-350,-990) scale(1,1)"><path fill="none" stroke="#000000" d="M 1168 1705 L 1094 1880" stroke-miterlimit="10"/></g><g transform="translate(-350,-990) scale(1,1)"><path fill="none" stroke="#000000" d="M 1131 1792 L 996 1777" stroke-miterlimit="10" stroke-dasharray="3"/></g><g transform="translate(-350,-990) scale(1,1)"><rect fill="#C0C0C0" stroke="none" x="575" y="2335" width="304" height="15" opacity="0.2"/></g><g transform="translate(-350,-990) scale(1,1)"><rect fill="#C0C0C0" stroke="none" x="575" y="2349" width="760" height="234" opacity="0.2"/></g><g transform="translate(-350,-990) scale(1,1)"><rect fill="#ffffff" stroke="none" x="568" y="2343" width="760" height="233"/></g><g transform="translate(-350,-990) scale(1,1)"><path fill="none" stroke="#000000" d="M 568 2343 L 1328 2343 L 1328 2576 L 568 2576 L 568 2343 Z Z" stroke-miterlimit="10"/></g><g transform="translate(-350,-990) scale(1,1)"><rect fill="#ffffff" stroke="none" x="568" y="2328" width="304" height="15"/></g><g transform="translate(-350,-990) scale(1,1)"><path fill="none" stroke="#000000" d="M 568 2328 L 872 2328 L 872 2343 L 568 2343 L 568 2328 Z Z" stroke-miterlimit="10"/></g><g transform="translate(-350,-990) scale(1,1)"><rect fill="#ffffff" stroke="none" x="568" y="2342" width="760" height="234"/></g><g transform="translate(-350,-990) scale(1,1)"><path fill="none" stroke="#000000" d="M 568 2342 L 1328 2342 L 1328 2576 L 568 2576 L 568 2342 Z Z" stroke-miterlimit="10"/></g><g transform="translate(-350,-990) scale(1,1)"><g><path fill="none" stroke="none"/><text fill="#000000" stroke="none" font-family="Arial" font-size="20px" font-style="normal" font-weight="bold" text-decoration="none" x="806.4912109375" y="2367">Identity.EntityFrameworkCore</text></g></g><g transform="translate(-350,-990) scale(1,1)"><path fill="none" stroke="#000000" d="M 707 2399 L 673.5333333333333 1903" stroke-miterlimit="10"/></g><g transform="translate(-350,-990) scale(1,1)"><rect fill="#C0C0C0" stroke="none" x="631" y="2407" width="176" height="136" opacity="0.2"/></g><g transform="translate(-350,-990) scale(1,1)"><rect fill="#ffffff" stroke="none" x="624" y="2400" width="176" height="136"/></g><g transform="translate(-350,-990) scale(1,1)"><path fill="none" stroke="#000000" d="M 624 2400 L 800 2400 L 800 2536 L 624 2536 L 624 2400 Z Z" stroke-miterlimit="10"/></g><g transform="translate(-350,-990) scale(1,1)"><path fill="none" stroke="#000000" d="M 624 2432 L 800 2432" stroke-miterlimit="10"/></g><g transform="translate(-350,-990) scale(1,1)"><path fill="none" stroke="#000000" d="M 624 2462 L 800 2462" stroke-miterlimit="10"/></g><g transform="translate(-350,-990) scale(1,1)"><g><path fill="none" stroke="none"/><text fill="#000000" stroke="none" font-family="Arial" font-size="20px" font-style="normal" font-weight="bold" text-decoration="none" x="664.2021484375" y="2423.5">UserStore</text></g></g><g transform="translate(-350,-990) scale(1,1)"><g><path fill="none" stroke="none"/><text fill="#000000" stroke="none" font-family="Arial" font-size="20px" font-style="normal" font-weight="normal" text-decoration="none" x="629" y="2454">+DbContext</text></g></g><g transform="translate(-350,-990) scale(1,1)"><rect fill="#C0C0C0" stroke="none" x="1103" y="2407" width="168" height="136" opacity="0.2"/></g><g transform="translate(-350,-990) scale(1,1)"><rect fill="#ffffff" stroke="none" x="1096" y="2400" width="168" height="136"/></g><g transform="translate(-350,-990) scale(1,1)"><path fill="none" stroke="#000000" d="M 1096 2400 L 1264 2400 L 1264 2536 L 1096 2536 L 1096 2400 Z Z" stroke-miterlimit="10"/></g><g transform="translate(-350,-990) scale(1,1)"><path fill="none" stroke="#000000" d="M 1096 2432 L 1264 2432" stroke-miterlimit="10"/></g><g transform="translate(-350,-990) scale(1,1)"><path fill="none" stroke="#000000" d="M 1096 2462 L 1264 2462" stroke-miterlimit="10"/></g><g transform="translate(-350,-990) scale(1,1)"><g><path fill="none" stroke="none"/><text fill="#000000" stroke="none" font-family="Arial" font-size="20px" font-style="normal" font-weight="bold" text-decoration="none" x="1132.7685546875" y="2424">RoleStore</text></g></g><g transform="translate(-350,-990) scale(1,1)"><g><path fill="none" stroke="none"/><text fill="#000000" stroke="none" font-family="Arial" font-size="20px" font-style="normal" font-weight="normal" text-decoration="none" x="1101" y="2454">+DbContext</text></g></g><g transform="translate(-350,-990) scale(1,1)"><path fill="none" stroke="#000000" d="M 1209 1705 L 1285 1880" stroke-miterlimit="10"/></g><g transform="translate(-350,-990) scale(1,1)"><path fill="#C0C0C0" stroke="none" d="M 1291.8310546875 1898.5 C 1291.8310546875 1892.1487248 1296.9797794875 1887 1303.3310546875 1887 C 1309.6823298875 1887 1314.8310546875 1892.1487248 1314.8310546875 1898.5 C 1314.8310546875 1904.8512752 1309.6823298875 1910 1303.3310546875 1910 C 1296.9797794875 1910 1291.8310546875 1904.8512752 1291.8310546875 1898.5 Z" opacity="0.2"/></g><g transform="translate(-350,-990) scale(1,1)"><path fill="none" stroke="#000000" d="M 1287.8682720163547 1899.1317279836453 A 11.5 11.5 0 0 1 1304.1317279836453 1882.8682720163547" stroke-miterlimit="10"/></g><g transform="translate(-350,-990) scale(1,1)"><path fill="#ffffff" stroke="none" d="M 1287.8310546875 1891.5 C 1287.8310546875 1886.8055792 1291.6366338875 1883 1296.3310546875 1883 C 1301.0254754875 1883 1304.8310546875 1886.8055792 1304.8310546875 1891.5 C 1304.8310546875 1896.1944208 1301.0254754875 1900 1296.3310546875 1900 C 1291.6366338875 1900 1287.8310546875 1896.1944208 1287.8310546875 1891.5 Z"/></g><g transform="translate(-350,-990) scale(1,1)"><path fill="none" stroke="#000000" d="M 1287.8310546875 1891.5 C 1287.8310546875 1886.8055792 1291.6366338875 1883 1296.3310546875 1883 C 1301.0254754875 1883 1304.8310546875 1886.8055792 1304.8310546875 1891.5 C 1304.8310546875 1896.1944208 1301.0254754875 1900 1296.3310546875 1900 C 1291.6366338875 1900 1287.8310546875 1896.1944208 1287.8310546875 1891.5 Z" stroke-miterlimit="10"/></g><g transform="translate(-350,-990) scale(1,1)"><g><path fill="none" stroke="none"/><text fill="#000000" stroke="none" font-family="Arial" font-size="20px" font-style="normal" font-weight="bold" text-decoration="none" x="1246.3212890625" y="1927">IRoleStore</text></g></g><g transform="translate(-350,-990) scale(1,1)"><path fill="none" stroke="#000000" d="M 1194 2399 L 1294.4 1903" stroke-miterlimit="10"/></g><g transform="translate(-350,-990) scale(1,1)"><rect fill="#C0C0C0" stroke="none" x="759" y="2071" width="160" height="15" opacity="0.2"/></g><g transform="translate(-350,-990) scale(1,1)"><rect fill="#C0C0C0" stroke="none" x="759" y="2085" width="400" height="170" opacity="0.2"/></g><g transform="translate(-350,-990) scale(1,1)"><rect fill="#ffffff" stroke="none" x="752" y="2079" width="400" height="169"/></g><g transform="translate(-350,-990) scale(1,1)"><path fill="none" stroke="#000000" d="M 752 2079 L 1152 2079 L 1152 2248 L 752 2248 L 752 2079 Z Z" stroke-miterlimit="10"/></g><g transform="translate(-350,-990) scale(1,1)"><rect fill="#ffffff" stroke="none" x="752" y="2064" width="160" height="15"/></g><g transform="translate(-350,-990) scale(1,1)"><path fill="none" stroke="#000000" d="M 752 2064 L 912 2064 L 912 2079 L 752 2079 L 752 2064 Z Z" stroke-miterlimit="10"/></g><g transform="translate(-350,-990) scale(1,1)"><rect fill="#ffffff" stroke="none" x="752" y="2078" width="400" height="170"/></g><g transform="translate(-350,-990) scale(1,1)"><path fill="none" stroke="#000000" d="M 752 2078 L 1152 2078 L 1152 2248 L 752 2248 L 752 2078 Z Z" stroke-miterlimit="10"/></g><g transform="translate(-350,-990) scale(1,1)"><g><path fill="none" stroke="none"/><text fill="#000000" stroke="none" font-family="Arial" font-size="20px" font-style="normal" font-weight="bold" text-decoration="none" x="883.2841796875" y="2103">Identity.Stores</text></g></g><g transform="translate(-350,-990) scale(1,1)"><rect fill="#C0C0C0" stroke="none" x="991" y="2143" width="136" height="80" opacity="0.2"/></g><g transform="translate(-350,-990) scale(1,1)"><rect fill="#ffffff" stroke="none" x="984" y="2136" width="136" height="80"/></g><g transform="translate(-350,-990) scale(1,1)"><path fill="none" stroke="#000000" d="M 984 2136 L 1120 2136 L 1120 2216 L 984 2216 L 984 2136 Z Z" stroke-miterlimit="10"/></g><g transform="translate(-350,-990) scale(1,1)"><path fill="none" stroke="#000000" d="M 984 2168 L 1120 2168" stroke-miterlimit="10"/></g><g transform="translate(-350,-990) scale(1,1)"><path fill="none" stroke="#000000" d="M 984 2178 L 1120 2178" stroke-miterlimit="10"/></g><g transform="translate(-350,-990) scale(1,1)"><g><path fill="none" stroke="none"/><text fill="#000000" stroke="none" font-family="Arial" font-size="20px" font-style="normal" font-weight="bold" text-decoration="none" x="994.7734375" y="2160">IdentityRole</text></g></g><g transform="translate(-350,-990) scale(1,1)"><rect fill="#C0C0C0" stroke="none" x="791" y="2143" width="160" height="80" opacity="0.2"/></g><g transform="translate(-350,-990) scale(1,1)"><rect fill="#ffffff" stroke="none" x="784" y="2136" width="160" height="80"/></g><g transform="translate(-350,-990) scale(1,1)"><path fill="none" stroke="#000000" d="M 784 2136 L 944 2136 L 944 2216 L 784 2216 L 784 2136 Z Z" stroke-miterlimit="10"/></g><g transform="translate(-350,-990) scale(1,1)"><path fill="none" stroke="#000000" d="M 784 2168 L 944 2168" stroke-miterlimit="10"/></g><g transform="translate(-350,-990) scale(1,1)"><path fill="none" stroke="#000000" d="M 784 2178 L 944 2178" stroke-miterlimit="10"/></g><g transform="translate(-350,-990) scale(1,1)"><g><path fill="none" stroke="none"/><text fill="#000000" stroke="none" font-family="Arial" font-size="20px" font-style="normal" font-weight="bold" text-decoration="none" x="806.20703125" y="2160">IdentityUser</text></g></g><g transform="translate(-350,-990) scale(1,1)"><path fill="none" stroke="#000000" d="M 942 2063 L 935 2001" stroke-miterlimit="10" stroke-dasharray="3"/></g><g transform="translate(-350,-990) scale(1,1)"><path fill="none" stroke="#000000" d="M 940.3230968389928 2010.6262474538476 L 935 2001 L 931.9572130197693 2011.5707827237597" stroke-miterlimit="10"/></g><g transform="translate(-350,-990) scale(1,1)"><path fill="none" stroke="#000000" d="M 950 2327 L 951 2249" stroke-miterlimit="10" stroke-dasharray="3"/></g><g transform="translate(-350,-990) scale(1,1)"><path fill="none" stroke="#000000" d="M 955.0788918518372 2259.2158035054035 L 951 2249 L 946.6605481542205 2259.1078760221008" stroke-miterlimit="10"/></g><g transform="translate(-350,-990) scale(1,1)"><rect fill="#C0C0C0" stroke="none" x="599" y="1007" width="236.79999999999995" height="15" opacity="0.2"/></g><g transform="translate(-350,-990) scale(1,1)"><rect fill="#C0C0C0" stroke="none" x="599" y="1021" width="592" height="290" opacity="0.2"/></g><g transform="translate(-350,-990) scale(1,1)"><rect fill="#ffffff" stroke="none" x="592" y="1015" width="592" height="289"/></g><g transform="translate(-350,-990) scale(1,1)"><path fill="none" stroke="#000000" d="M 592 1015 L 1184 1015 L 1184 1304 L 592 1304 L 592 1015 Z Z" stroke-miterlimit="10"/></g><g transform="translate(-350,-990) scale(1,1)"><rect fill="#ffffff" stroke="none" x="592" y="1000" width="236.79999999999995" height="15"/></g><g transform="translate(-350,-990) scale(1,1)"><path fill="none" stroke="#000000" d="M 592 1000 L 828.8 1000 L 828.8 1015 L 592 1015 L 592 1000 Z Z" stroke-miterlimit="10"/></g><g transform="translate(-350,-990) scale(1,1)"><rect fill="#ffffff" stroke="none" x="592" y="1014" width="592" height="290"/></g><g transform="translate(-350,-990) scale(1,1)"><path fill="none" stroke="#000000" d="M 592 1014 L 1184 1014 L 1184 1304 L 592 1304 L 592 1014 Z Z" stroke-miterlimit="10"/></g><g transform="translate(-350,-990) scale(1,1)"><g><path fill="none" stroke="none"/><text fill="#000000" stroke="none" font-family="Arial" font-size="20px" font-style="normal" font-weight="bold" text-decoration="none" x="744.0986328125" y="1039">Microsoft.AspNetCore.Identity</text></g></g><g transform="translate(-350,-990) scale(1,1)"><rect fill="#C0C0C0" stroke="none" x="655" y="1119" width="162.90625" height="120" opacity="0.2"/></g><g transform="translate(-350,-990) scale(1,1)"><rect fill="#ffffff" stroke="none" x="648" y="1112" width="162.90625" height="120"/></g><g transform="translate(-350,-990) scale(1,1)"><path fill="none" stroke="#000000" d="M 648 1112 L 810.90625 1112 L 810.90625 1232 L 648 1232 L 648 1112 Z Z" stroke-miterlimit="10"/></g><g transform="translate(-350,-990) scale(1,1)"><path fill="none" stroke="#000000" d="M 648 1144 L 810.90625 1144" stroke-miterlimit="10"/></g><g transform="translate(-350,-990) scale(1,1)"><path fill="none" stroke="#000000" d="M 648 1174 L 810.90625 1174" stroke-miterlimit="10"/></g><g transform="translate(-350,-990) scale(1,1)"><g><path fill="none" stroke="none"/><text fill="#000000" stroke="none" font-family="Arial" font-size="20px" font-style="normal" font-weight="bold" text-decoration="none" x="657.7783203125" y="1136">SignInManager</text></g></g><g transform="translate(-350,-990) scale(1,1)"><g><path fill="none" stroke="none"/><text fill="#000000" stroke="none" font-family="Arial" font-size="20px" font-style="normal" font-weight="normal" text-decoration="none" x="653" y="1165.5">+UserManager</text></g></g><g transform="translate(-350,-990) scale(1,1)"><path fill="none" stroke="#000000" d="M 721 1233 L 659 1695" stroke-miterlimit="10" stroke-dasharray="3"/></g><g transform="translate(-350,-990) scale(1,1)"><path fill="none" stroke="#000000" d="M 656.1795880572829 1684.3677247743778 L 659 1695 L 664.5238215010444 1685.487513678086" stroke-miterlimit="10"/></g><g transform="translate(-350,-990) scale(1,1)"><path fill="none" stroke="#000000" d="M 697 1233 L 508.919921875 1585.4640625" stroke-miterlimit="10"/></g><g transform="translate(-350,-990) scale(1,1)"><path fill="none" stroke="#000000" d="M 747 1233 L 848.6666666666666 1584" stroke-miterlimit="10"/></g><g transform="translate(-350,-990) scale(1,1)"><path fill="none" stroke="#000000" d="M 1000.3633806908063 1381.9098579275808 A 11.5 11.5 0 0 1 1007.6366193091937 1360.0901420724192" stroke-miterlimit="10"/></g><g transform="translate(-350,-990) scale(1,1)"><g><path fill="none" stroke="none"/><text fill="#000000" stroke="none" font-family="Arial" font-size="20px" font-style="normal" font-weight="bold" text-decoration="none" x="853.1083984375" y="1407">IAuthenticationSchemeProvider</text></g></g><g transform="translate(-350,-990) scale(1,1)"><path fill="none" stroke="#000000" d="M 807 1233 L 993.3076171875 1367.4358723958333" stroke-miterlimit="10"/></g><g transform="translate(-350,-990) scale(1,1)"><path fill="none" stroke="#000000" d="M 489.8160069531241 1586.020008691405 A 11.5 11.5 0 0 1 504.1839930468759 1603.979991308595" stroke-miterlimit="10"/></g><g transform="translate(-350,-990) scale(1,1)"><g><path fill="none" stroke="none"/><text fill="#000000" stroke="none" font-family="Arial" font-size="20px" font-style="normal" font-weight="bold" text-decoration="none" x="410.1884765625" y="1631">IUserConfirmation</text></g></g><g transform="translate(-350,-990) scale(1,1)"><path fill="none" stroke="#000000" d="M 846.4314216151148 1601.37905225659 A 11.5 11.5 0 0 1 865.5685783848852 1588.62094774341" stroke-miterlimit="10"/></g><g transform="translate(-350,-990) scale(1,1)"><g><path fill="none" stroke="none"/><text fill="#000000" stroke="none" font-family="Arial" font-size="20px" font-style="normal" font-weight="bold" text-decoration="none" x="720.5869140625" y="1631">IUserClaimsPrincipalFactory</text></g></g><g transform="translate(-350,-990) scale(1,1)"><path fill="#ffffff" stroke="none" d="M 1040 1440 L 1406.408203125 1440 L 1416.408203125 1450 L 1416.408203125 1471 L 1040 1471 L 1040 1440"/></g><g transform="translate(-350,-990) scale(1,1)"><path fill="none" stroke="#000000" d="M 1040 1440 L 1406.408203125 1440 L 1416.408203125 1450 L 1416.408203125 1471 L 1040 1471 L 1040 1440 L 1040 1440" stroke-miterlimit="10"/></g><g transform="translate(-350,-990) scale(1,1)"><path fill="none" stroke="#000000" d="M 1406.408203125 1440 L 1406.408203125 1450 L 1416.408203125 1450 L 1406.408203125 1440" stroke-miterlimit="10"/></g><g transform="translate(-350,-990) scale(1,1)"><g><path fill="none" stroke="none"/><text fill="#000000" stroke="none" font-family="Arial" font-size="20px" font-style="normal" font-weight="normal" text-decoration="none" x="1045" y="1460">Microsoft.AspNetCore.Authentication</text></g></g><g transform="translate(-350,-990) scale(1,1)"><path fill="none" stroke="#000000" d="M 1098 1416 L 1173 1439" stroke-miterlimit="10" stroke-dasharray="3"/></g><g transform="translate(-350,-990) scale(1,1)"><rect fill="#C0C0C0" stroke="none" x="911" y="1087" width="218.27734375" height="80" opacity="0.2"/></g><g transform="translate(-350,-990) scale(1,1)"><rect fill="#ffffff" stroke="none" x="904" y="1080" width="218.27734375" height="80"/></g><g transform="translate(-350,-990) scale(1,1)"><path fill="none" stroke="#000000" d="M 904 1080 L 1122.27734375 1080 L 1122.27734375 1160 L 904 1160 L 904 1080 Z Z" stroke-miterlimit="10"/></g><g transform="translate(-350,-990) scale(1,1)"><path fill="none" stroke="#000000" d="M 904 1112 L 1122.27734375 1112" stroke-miterlimit="10"/></g><g transform="translate(-350,-990) scale(1,1)"><path fill="none" stroke="#000000" d="M 904 1122 L 1122.27734375 1122" stroke-miterlimit="10"/></g><g transform="translate(-350,-990) scale(1,1)"><g><path fill="none" stroke="none"/><text fill="#000000" stroke="none" font-family="Arial" font-size="20px" font-style="normal" font-weight="bold" text-decoration="none" x="915.3408203125" y="1104">AspNetRoleManager</text></g></g><g transform="translate(-350,-990) scale(1,1)"><rect fill="#C0C0C0" stroke="none" x="911" y="1199" width="219.673828125" height="80" opacity="0.2"/></g><g transform="translate(-350,-990) scale(1,1)"><rect fill="#ffffff" stroke="none" x="904" y="1192" width="219.673828125" height="80"/></g><g transform="translate(-350,-990) scale(1,1)"><path fill="none" stroke="#000000" d="M 904 1192 L 1123.673828125 1192 L 1123.673828125 1272 L 904 1272 L 904 1192 Z Z" stroke-miterlimit="10"/></g><g transform="translate(-350,-990) scale(1,1)"><path fill="none" stroke="#000000" d="M 904 1224 L 1123.673828125 1224" stroke-miterlimit="10"/></g><g transform="translate(-350,-990) scale(1,1)"><path fill="none" stroke="#000000" d="M 904 1234 L 1123.673828125 1234" stroke-miterlimit="10"/></g><g transform="translate(-350,-990) scale(1,1)"><g><path fill="none" stroke="none"/><text fill="#000000" stroke="none" font-family="Arial" font-size="20px" font-style="normal" font-weight="bold" text-decoration="none" x="915.47265625" y="1215.5">AspNetUserManager</text></g></g></g></svg>