<svg version="1.1" xmlns="http://www.w3.org/2000/svg" xmlns:xlink="http://www.w3.org/1999/xlink" width="1116" height="1132"><defs/><g><g transform="translate(-294,-462) scale(1,1)"><rect fill="#C0C0C0" stroke="none" x="311" y="479" width="438.4" height="15" opacity="0.2"/></g><g transform="translate(-294,-462) scale(1,1)"><rect fill="#C0C0C0" stroke="none" x="311" y="493" width="1096" height="482" opacity="0.2"/></g><g transform="translate(-294,-462) scale(1,1)"><rect fill="#ffffff" stroke="none" x="304" y="487" width="1096" height="481"/></g><g transform="translate(-294,-462) scale(1,1)"><path fill="none" stroke="#000000" d="M 304 487 L 1400 487 L 1400 968 L 304 968 L 304 487 Z Z" stroke-miterlimit="10"/></g><g transform="translate(-294,-462) scale(1,1)"><rect fill="#ffffff" stroke="none" x="304" y="472" width="438.4" height="15"/></g><g transform="translate(-294,-462) scale(1,1)"><path fill="none" stroke="#000000" d="M 304 472 L 742.4 472 L 742.4 487 L 304 487 L 304 472 Z Z" stroke-miterlimit="10"/></g><g transform="translate(-294,-462) scale(1,1)"><rect fill="#ffffff" stroke="none" x="304" y="486" width="1096" height="482"/></g><g transform="translate(-294,-462) scale(1,1)"><path fill="none" stroke="#000000" d="M 304 486 L 1400 486 L 1400 968 L 304 968 L 304 486 Z Z" stroke-miterlimit="10"/></g><g transform="translate(-294,-462) scale(1,1)"><g><path fill="none" stroke="none"/><text fill="#000000" stroke="none" font-family="Arial" font-size="20px" font-style="normal" font-weight="bold" text-decoration="none" x="791.6240234375" y="511">Identity.Core</text></g></g><g transform="translate(-294,-462) scale(1,1)"><rect fill="#C0C0C0" stroke="none" x="495" y="583" width="216" height="96" opacity="0.2"/></g><g transform="translate(-294,-462) scale(1,1)"><rect fill="#ffffff" stroke="none" x="488" y="576" width="216" height="96"/></g><g transform="translate(-294,-462) scale(1,1)"><path fill="none" stroke="#000000" d="M 488 576 L 704 576 L 704 672 L 488 672 L 488 576 Z Z" stroke-miterlimit="10"/></g><g transform="translate(-294,-462) scale(1,1)"><path fill="none" stroke="#000000" d="M 488 608 L 704 608" stroke-miterlimit="10"/></g><g transform="translate(-294,-462) scale(1,1)"><path fill="none" stroke="#000000" d="M 488 618 L 704 618" stroke-miterlimit="10"/></g><g transform="translate(-294,-462) scale(1,1)"><g><path fill="none" stroke="none"/><text fill="#000000" stroke="none" font-family="Arial" font-size="20px" font-style="normal" font-weight="bold" text-decoration="none" x="532.640625" y="599.5">UserManager</text></g></g><g transform="translate(-294,-462) scale(1,1)"><rect fill="#C0C0C0" stroke="none" x="1047" y="583" width="184" height="96" opacity="0.2"/></g><g transform="translate(-294,-462) scale(1,1)"><rect fill="#ffffff" stroke="none" x="1040" y="576" width="184" height="96"/></g><g transform="translate(-294,-462) scale(1,1)"><path fill="none" stroke="#000000" d="M 1040 576 L 1224 576 L 1224 672 L 1040 672 L 1040 576 Z Z" stroke-miterlimit="10"/></g><g transform="translate(-294,-462) scale(1,1)"><path fill="none" stroke="#000000" d="M 1040 608 L 1224 608" stroke-miterlimit="10"/></g><g transform="translate(-294,-462) scale(1,1)"><path fill="none" stroke="#000000" d="M 1040 618 L 1224 618" stroke-miterlimit="10"/></g><g transform="translate(-294,-462) scale(1,1)"><g><path fill="none" stroke="none"/><text fill="#000000" stroke="none" font-family="Arial" font-size="20px" font-style="normal" font-weight="bold" text-decoration="none" x="1069.20703125" y="600">RoleManager</text></g></g><g transform="translate(-294,-462) scale(1,1)"><path fill="none" stroke="#000000" d="M 566 673 L 451.92578125 850.5818014705883" stroke-miterlimit="10"/></g><g transform="translate(-294,-462) scale(1,1)"><path fill="none" stroke="#000000" d="M 433.3681432276155 849.6048695724552 A 11.5 11.5 0 0 1 446.6318567723845 868.3951304275448" stroke-miterlimit="10"/></g><g transform="translate(-294,-462) scale(1,1)"><g><path fill="none" stroke="none"/><text fill="#000000" stroke="none" font-family="Arial" font-size="20px" font-style="normal" font-weight="bold" text-decoration="none" x="356.5" y="895">IPasswordHasher</text></g></g><g transform="translate(-294,-462) scale(1,1)"><path fill="#C0C0C0" stroke="none" d="M 610.576171875 866.5 C 610.576171875 860.1487248 615.724896675 855 622.076171875 855 C 628.427447075 855 633.576171875 860.1487248 633.576171875 866.5 C 633.576171875 872.8512752 628.427447075 878 622.076171875 878 C 615.724896675 878 610.576171875 872.8512752 610.576171875 866.5 Z" opacity="0.2"/></g><g transform="translate(-294,-462) scale(1,1)"><path fill="none" stroke="#000000" d="M 603.6564698759304 860.8905883540117 A 11.5 11.5 0 0 1 626.3435301240696 857.1094116459883" stroke-miterlimit="10"/></g><g transform="translate(-294,-462) scale(1,1)"><path fill="#ffffff" stroke="none" d="M 606.576171875 859.5 C 606.576171875 854.8055792 610.381751075 851 615.076171875 851 C 619.770592675 851 623.576171875 854.8055792 623.576171875 859.5 C 623.576171875 864.1944208 619.770592675 868 615.076171875 868 C 610.381751075 868 606.576171875 864.1944208 606.576171875 859.5 Z"/></g><g transform="translate(-294,-462) scale(1,1)"><path fill="none" stroke="#000000" d="M 606.576171875 859.5 C 606.576171875 854.8055792 610.381751075 851 615.076171875 851 C 619.770592675 851 623.576171875 854.8055792 623.576171875 859.5 C 623.576171875 864.1944208 619.770592675 868 615.076171875 868 C 610.381751075 868 606.576171875 864.1944208 606.576171875 859.5 Z" stroke-miterlimit="10"/></g><g transform="translate(-294,-462) scale(1,1)"><g><path fill="none" stroke="none"/><text fill="#000000" stroke="none" font-family="Arial" font-size="20px" font-style="normal" font-weight="bold" text-decoration="none" x="564.5" y="894.5">IUserStore</text></g></g><g transform="translate(-294,-462) scale(1,1)"><path fill="none" stroke="#000000" d="M 600 673 L 613.1666666666666 848" stroke-miterlimit="10"/></g><g transform="translate(-294,-462) scale(1,1)"><path fill="none" stroke="#000000" d="M 834.3294076403854 869.508832809133 A 11.5 11.5 0 0 1 843.6705923596146 848.491167190867" stroke-miterlimit="10"/></g><g transform="translate(-294,-462) scale(1,1)"><g><path fill="none" stroke="none"/><text fill="#000000" stroke="none" font-family="Arial" font-size="20px" font-style="normal" font-weight="bold" text-decoration="none" x="772.5" y="895">IUserValidator</text></g></g><g transform="translate(-294,-462) scale(1,1)"><path fill="none" stroke="#000000" d="M 643 673 L 828.2509765625 854.22265625" stroke-miterlimit="10"/></g><g transform="translate(-294,-462) scale(1,1)"><path fill="#ffffff" stroke="none" d="M 840 712 L 928 712 L 938 722 L 938 760 L 840 760 L 840 712"/></g><g transform="translate(-294,-462) scale(1,1)"><path fill="none" stroke="#000000" d="M 840 712 L 928 712 L 938 722 L 938 760 L 840 760 L 840 712 L 840 712" stroke-miterlimit="10"/></g><g transform="translate(-294,-462) scale(1,1)"><path fill="none" stroke="#000000" d="M 928 712 L 928 722 L 938 722 L 928 712" stroke-miterlimit="10"/></g><g transform="translate(-294,-462) scale(1,1)"><g><path fill="none" stroke="none"/><text fill="#000000" stroke="none" font-family="Arial" font-size="13px" font-style="normal" font-weight="normal" text-decoration="none" x="845" y="727">IEnumerable</text></g></g><g transform="translate(-294,-462) scale(1,1)"><path fill="none" stroke="#000000" d="M 735 763 L 839 745" stroke-miterlimit="10" stroke-dasharray="3"/></g><g transform="translate(-294,-462) scale(1,1)"><path fill="none" stroke="#000000" d="M 1014.8682720163547 850.8682720163547 A 11.5 11.5 0 0 1 1031.1317279836453 867.1317279836453" stroke-miterlimit="10"/></g><g transform="translate(-294,-462) scale(1,1)"><g><path fill="none" stroke="none"/><text fill="#000000" stroke="none" font-family="Arial" font-size="20px" font-style="normal" font-weight="bold" text-decoration="none" x="956.5" y="895">IRoleValidator</text></g></g><g transform="translate(-294,-462) scale(1,1)"><path fill="none" stroke="#000000" d="M 1111 673 L 1034 848" stroke-miterlimit="10"/></g><g transform="translate(-294,-462) scale(1,1)"><path fill="none" stroke="#000000" d="M 1072 760 L 940 743" stroke-miterlimit="10" stroke-dasharray="3"/></g><g transform="translate(-294,-462) scale(1,1)"><rect fill="#C0C0C0" stroke="none" x="439" y="1303" width="348.79999999999995" height="15" opacity="0.2"/></g><g transform="translate(-294,-462) scale(1,1)"><rect fill="#C0C0C0" stroke="none" x="439" y="1317" width="872" height="274" opacity="0.2"/></g><g transform="translate(-294,-462) scale(1,1)"><rect fill="#ffffff" stroke="none" x="432" y="1311" width="872" height="273"/></g><g transform="translate(-294,-462) scale(1,1)"><path fill="none" stroke="#000000" d="M 432 1311 L 1304 1311 L 1304 1584 L 432 1584 L 432 1311 Z Z" stroke-miterlimit="10"/></g><g transform="translate(-294,-462) scale(1,1)"><rect fill="#ffffff" stroke="none" x="432" y="1296" width="348.79999999999995" height="15"/></g><g transform="translate(-294,-462) scale(1,1)"><path fill="none" stroke="#000000" d="M 432 1296 L 780.8 1296 L 780.8 1311 L 432 1311 L 432 1296 Z Z" stroke-miterlimit="10"/></g><g transform="translate(-294,-462) scale(1,1)"><rect fill="#ffffff" stroke="none" x="432" y="1310" width="872" height="274"/></g><g transform="translate(-294,-462) scale(1,1)"><path fill="none" stroke="#000000" d="M 432 1310 L 1304 1310 L 1304 1584 L 432 1584 L 432 1310 Z Z" stroke-miterlimit="10"/></g><g transform="translate(-294,-462) scale(1,1)"><g><path fill="none" stroke="none"/><text fill="#000000" stroke="none" font-family="Arial" font-size="20px" font-style="normal" font-weight="bold" text-decoration="none" x="726.4912109375" y="1335">Identity.EntityFrameworkCore</text></g></g><g transform="translate(-294,-462) scale(1,1)"><path fill="none" stroke="#000000" d="M 651 1367 L 615.5333333333333 871" stroke-miterlimit="10"/></g><g transform="translate(-294,-462) scale(1,1)"><rect fill="#C0C0C0" stroke="none" x="575" y="1375" width="176" height="136" opacity="0.2"/></g><g transform="translate(-294,-462) scale(1,1)"><rect fill="#ffffff" stroke="none" x="568" y="1368" width="176" height="136"/></g><g transform="translate(-294,-462) scale(1,1)"><path fill="none" stroke="#000000" d="M 568 1368 L 744 1368 L 744 1504 L 568 1504 L 568 1368 Z Z" stroke-miterlimit="10"/></g><g transform="translate(-294,-462) scale(1,1)"><path fill="none" stroke="#000000" d="M 568 1400 L 744 1400" stroke-miterlimit="10"/></g><g transform="translate(-294,-462) scale(1,1)"><path fill="none" stroke="#000000" d="M 568 1430 L 744 1430" stroke-miterlimit="10"/></g><g transform="translate(-294,-462) scale(1,1)"><g><path fill="none" stroke="none"/><text fill="#000000" stroke="none" font-family="Arial" font-size="20px" font-style="normal" font-weight="bold" text-decoration="none" x="608.2021484375" y="1391.5">UserStore</text></g></g><g transform="translate(-294,-462) scale(1,1)"><g><path fill="none" stroke="none"/><text fill="#000000" stroke="none" font-family="Arial" font-size="20px" font-style="normal" font-weight="normal" text-decoration="none" x="573" y="1422">+DbContext</text></g></g><g transform="translate(-294,-462) scale(1,1)"><rect fill="#C0C0C0" stroke="none" x="1047" y="1375" width="168" height="136" opacity="0.2"/></g><g transform="translate(-294,-462) scale(1,1)"><rect fill="#ffffff" stroke="none" x="1040" y="1368" width="168" height="136"/></g><g transform="translate(-294,-462) scale(1,1)"><path fill="none" stroke="#000000" d="M 1040 1368 L 1208 1368 L 1208 1504 L 1040 1504 L 1040 1368 Z Z" stroke-miterlimit="10"/></g><g transform="translate(-294,-462) scale(1,1)"><path fill="none" stroke="#000000" d="M 1040 1400 L 1208 1400" stroke-miterlimit="10"/></g><g transform="translate(-294,-462) scale(1,1)"><path fill="none" stroke="#000000" d="M 1040 1430 L 1208 1430" stroke-miterlimit="10"/></g><g transform="translate(-294,-462) scale(1,1)"><g><path fill="none" stroke="none"/><text fill="#000000" stroke="none" font-family="Arial" font-size="20px" font-style="normal" font-weight="bold" text-decoration="none" x="1076.7685546875" y="1392">RoleStore</text></g></g><g transform="translate(-294,-462) scale(1,1)"><g><path fill="none" stroke="none"/><text fill="#000000" stroke="none" font-family="Arial" font-size="20px" font-style="normal" font-weight="normal" text-decoration="none" x="1045" y="1422">+DbContext</text></g></g><g transform="translate(-294,-462) scale(1,1)"><path fill="none" stroke="#000000" d="M 1153 673 L 1227.009765625 848.009765625" stroke-miterlimit="10"/></g><g transform="translate(-294,-462) scale(1,1)"><path fill="#C0C0C0" stroke="none" d="M 1234.009765625 866.5 C 1234.009765625 860.1487248 1239.158490425 855 1245.509765625 855 C 1251.861040825 855 1257.009765625 860.1487248 1257.009765625 866.5 C 1257.009765625 872.8512752 1251.861040825 878 1245.509765625 878 C 1239.158490425 878 1234.009765625 872.8512752 1234.009765625 866.5 Z" opacity="0.2"/></g><g transform="translate(-294,-462) scale(1,1)"><path fill="none" stroke="#000000" d="M 1229.8682720163547 867.1317279836453 A 11.5 11.5 0 0 1 1246.1317279836453 850.8682720163547" stroke-miterlimit="10"/></g><g transform="translate(-294,-462) scale(1,1)"><path fill="#ffffff" stroke="none" d="M 1230.009765625 859.5 C 1230.009765625 854.8055792 1233.815344825 851 1238.509765625 851 C 1243.204186425 851 1247.009765625 854.8055792 1247.009765625 859.5 C 1247.009765625 864.1944208 1243.204186425 868 1238.509765625 868 C 1233.815344825 868 1230.009765625 864.1944208 1230.009765625 859.5 Z"/></g><g transform="translate(-294,-462) scale(1,1)"><path fill="none" stroke="#000000" d="M 1230.009765625 859.5 C 1230.009765625 854.8055792 1233.815344825 851 1238.509765625 851 C 1243.204186425 851 1247.009765625 854.8055792 1247.009765625 859.5 C 1247.009765625 864.1944208 1243.204186425 868 1238.509765625 868 C 1233.815344825 868 1230.009765625 864.1944208 1230.009765625 859.5 Z" stroke-miterlimit="10"/></g><g transform="translate(-294,-462) scale(1,1)"><g><path fill="none" stroke="none"/><text fill="#000000" stroke="none" font-family="Arial" font-size="20px" font-style="normal" font-weight="bold" text-decoration="none" x="1188.5" y="895">IRoleStore</text></g></g><g transform="translate(-294,-462) scale(1,1)"><path fill="none" stroke="#000000" d="M 1138 1367 L 1236.4 871" stroke-miterlimit="10"/></g><g transform="translate(-294,-462) scale(1,1)"><rect fill="#C0C0C0" stroke="none" x="703" y="1039" width="160" height="15" opacity="0.2"/></g><g transform="translate(-294,-462) scale(1,1)"><rect fill="#C0C0C0" stroke="none" x="703" y="1053" width="400" height="170" opacity="0.2"/></g><g transform="translate(-294,-462) scale(1,1)"><rect fill="#ffffff" stroke="none" x="696" y="1047" width="400" height="169"/></g><g transform="translate(-294,-462) scale(1,1)"><path fill="none" stroke="#000000" d="M 696 1047 L 1096 1047 L 1096 1216 L 696 1216 L 696 1047 Z Z" stroke-miterlimit="10"/></g><g transform="translate(-294,-462) scale(1,1)"><rect fill="#ffffff" stroke="none" x="696" y="1032" width="160" height="15"/></g><g transform="translate(-294,-462) scale(1,1)"><path fill="none" stroke="#000000" d="M 696 1032 L 856 1032 L 856 1047 L 696 1047 L 696 1032 Z Z" stroke-miterlimit="10"/></g><g transform="translate(-294,-462) scale(1,1)"><rect fill="#ffffff" stroke="none" x="696" y="1046" width="400" height="170"/></g><g transform="translate(-294,-462) scale(1,1)"><path fill="none" stroke="#000000" d="M 696 1046 L 1096 1046 L 1096 1216 L 696 1216 L 696 1046 Z Z" stroke-miterlimit="10"/></g><g transform="translate(-294,-462) scale(1,1)"><g><path fill="none" stroke="none"/><text fill="#000000" stroke="none" font-family="Arial" font-size="20px" font-style="normal" font-weight="bold" text-decoration="none" x="827.2841796875" y="1071">Identity.Stores</text></g></g><g transform="translate(-294,-462) scale(1,1)"><rect fill="#C0C0C0" stroke="none" x="935" y="1111" width="136" height="80" opacity="0.2"/></g><g transform="translate(-294,-462) scale(1,1)"><rect fill="#ffffff" stroke="none" x="928" y="1104" width="136" height="80"/></g><g transform="translate(-294,-462) scale(1,1)"><path fill="none" stroke="#000000" d="M 928 1104 L 1064 1104 L 1064 1184 L 928 1184 L 928 1104 Z Z" stroke-miterlimit="10"/></g><g transform="translate(-294,-462) scale(1,1)"><path fill="none" stroke="#000000" d="M 928 1136 L 1064 1136" stroke-miterlimit="10"/></g><g transform="translate(-294,-462) scale(1,1)"><path fill="none" stroke="#000000" d="M 928 1146 L 1064 1146" stroke-miterlimit="10"/></g><g transform="translate(-294,-462) scale(1,1)"><g><path fill="none" stroke="none"/><text fill="#000000" stroke="none" font-family="Arial" font-size="20px" font-style="normal" font-weight="bold" text-decoration="none" x="938.7734375" y="1128">IdentityRole</text></g></g><g transform="translate(-294,-462) scale(1,1)"><rect fill="#C0C0C0" stroke="none" x="735" y="1111" width="160" height="80" opacity="0.2"/></g><g transform="translate(-294,-462) scale(1,1)"><rect fill="#ffffff" stroke="none" x="728" y="1104" width="160" height="80"/></g><g transform="translate(-294,-462) scale(1,1)"><path fill="none" stroke="#000000" d="M 728 1104 L 888 1104 L 888 1184 L 728 1184 L 728 1104 Z Z" stroke-miterlimit="10"/></g><g transform="translate(-294,-462) scale(1,1)"><path fill="none" stroke="#000000" d="M 728 1136 L 888 1136" stroke-miterlimit="10"/></g><g transform="translate(-294,-462) scale(1,1)"><path fill="none" stroke="#000000" d="M 728 1146 L 888 1146" stroke-miterlimit="10"/></g><g transform="translate(-294,-462) scale(1,1)"><g><path fill="none" stroke="none"/><text fill="#000000" stroke="none" font-family="Arial" font-size="20px" font-style="normal" font-weight="bold" text-decoration="none" x="750.20703125" y="1128">IdentityUser</text></g></g><g transform="translate(-294,-462) scale(1,1)"><path fill="none" stroke="#000000" d="M 886 1031 L 879 969" stroke-miterlimit="10" stroke-dasharray="3"/></g><g transform="translate(-294,-462) scale(1,1)"><path fill="none" stroke="#000000" d="M 884.3230968389928 978.6262474538474 L 879 969 L 875.9572130197693 979.5707827237597" stroke-miterlimit="10"/></g><g transform="translate(-294,-462) scale(1,1)"><path fill="none" stroke="#000000" d="M 881 1295 L 888 1217" stroke-miterlimit="10" stroke-dasharray="3"/></g><g transform="translate(-294,-462) scale(1,1)"><path fill="none" stroke="#000000" d="M 891.284283690036 1227.4982608389848 L 888 1217 L 882.8989478386534 1226.745730698476" stroke-miterlimit="10"/></g></g></svg>