<svg version="1.1" xmlns="http://www.w3.org/2000/svg" xmlns:xlink="http://www.w3.org/1999/xlink" width="1212" height="481"><defs/><g><g transform="translate(-166,-814) scale(1,1)"><rect fill="#C0C0C0" stroke="none" x="519" y="863" width="192" height="116" opacity="0.2"/></g><g transform="translate(-166,-814) scale(1,1)"><rect fill="#ffffff" stroke="none" x="512" y="856" width="192" height="116"/></g><g transform="translate(-166,-814) scale(1,1)"><path fill="none" stroke="#000000" d="M 512 856 L 704 856 L 704 972 L 512 972 L 512 856 Z Z" stroke-miterlimit="10"/></g><g transform="translate(-166,-814) scale(1,1)"><path fill="none" stroke="#000000" d="M 512 881 L 704 881" stroke-miterlimit="10"/></g><g transform="translate(-166,-814) scale(1,1)"><path fill="none" stroke="#000000" d="M 512 891 L 704 891" stroke-miterlimit="10"/></g><g transform="translate(-166,-814) scale(1,1)"><g><path fill="none" stroke="none"/><text fill="#000000" stroke="none" font-family="Arial" font-size="13px" font-style="normal" font-weight="bold" text-decoration="none" x="570.0791015625" y="874">SSOContext</text></g></g><g transform="translate(-166,-814) scale(1,1)"><rect fill="#C0C0C0" stroke="none" x="1255" y="879" width="120" height="76" opacity="0.2"/></g><g transform="translate(-166,-814) scale(1,1)"><rect fill="#ffffff" stroke="none" x="1248" y="872" width="120" height="76"/></g><g transform="translate(-166,-814) scale(1,1)"><path fill="none" stroke="#000000" d="M 1248 872 L 1368 872 L 1368 948 L 1248 948 L 1248 872 Z Z" stroke-miterlimit="10"/></g><g transform="translate(-166,-814) scale(1,1)"><path fill="none" stroke="#000000" d="M 1248 897 L 1368 897" stroke-miterlimit="10"/></g><g transform="translate(-166,-814) scale(1,1)"><path fill="none" stroke="#000000" d="M 1248 907 L 1368 907" stroke-miterlimit="10"/></g><g transform="translate(-166,-814) scale(1,1)"><g><path fill="none" stroke="none"/><text fill="#000000" stroke="none" font-family="Arial" font-size="13px" font-style="normal" font-weight="bold" text-decoration="none" x="1275.141357421875" y="890">DbContext</text></g></g><g transform="translate(-166,-814) scale(1,1)"><rect fill="#C0C0C0" stroke="none" x="1031" y="879" width="144" height="76" opacity="0.2"/></g><g transform="translate(-166,-814) scale(1,1)"><rect fill="#ffffff" stroke="none" x="1024" y="872" width="144" height="76"/></g><g transform="translate(-166,-814) scale(1,1)"><path fill="none" stroke="#000000" d="M 1024 872 L 1168 872 L 1168 948 L 1024 948 L 1024 872 Z Z" stroke-miterlimit="10"/></g><g transform="translate(-166,-814) scale(1,1)"><path fill="none" stroke="#000000" d="M 1024 897 L 1168 897" stroke-miterlimit="10"/></g><g transform="translate(-166,-814) scale(1,1)"><path fill="none" stroke="#000000" d="M 1024 907 L 1168 907" stroke-miterlimit="10"/></g><g transform="translate(-166,-814) scale(1,1)"><g><path fill="none" stroke="none"/><text fill="#000000" stroke="none" font-family="Arial" font-size="13px" font-style="normal" font-weight="bold" text-decoration="none" x="1034.240478515625" y="890">IdentityUserContext</text></g></g><g transform="translate(-166,-814) scale(1,1)"><rect fill="#C0C0C0" stroke="none" x="807" y="879" width="152.94091796875" height="84" opacity="0.2"/></g><g transform="translate(-166,-814) scale(1,1)"><rect fill="#ffffff" stroke="none" x="800" y="872" width="152.94091796875" height="84"/></g><g transform="translate(-166,-814) scale(1,1)"><path fill="none" stroke="#000000" d="M 800 872 L 952.94091796875 872 L 952.94091796875 956 L 800 956 L 800 872 Z Z" stroke-miterlimit="10"/></g><g transform="translate(-166,-814) scale(1,1)"><path fill="none" stroke="#000000" d="M 800 897 L 952.94091796875 897" stroke-miterlimit="10"/></g><g transform="translate(-166,-814) scale(1,1)"><path fill="none" stroke="#000000" d="M 800 907 L 952.94091796875 907" stroke-miterlimit="10"/></g><g transform="translate(-166,-814) scale(1,1)"><g><path fill="none" stroke="none"/><text fill="#000000" stroke="none" font-family="Arial" font-size="13px" font-style="normal" font-weight="bold" text-decoration="none" x="820.5" y="890">IdentityDbContext</text></g></g><g transform="translate(-166,-814) scale(1,1)"><path fill="none" stroke="#000000" d="M 1169 910 L 1247 910" stroke-miterlimit="10"/></g><g transform="translate(-166,-814) scale(1,1)"><path fill="#FFFFFF" stroke="none" d="M 1226.6746502847518 918.419035512032 L 1247 910 L 1226.6746502847516 901.580964487968"/></g><g transform="translate(-166,-814) scale(1,1)"><path fill="none" stroke="#000000" d="M 1226.6746502847518 918.419035512032 L 1247 910 L 1226.6746502847516 901.580964487968 L 1226.6746502847518 918.419035512032" stroke-miterlimit="10"/></g><g transform="translate(-166,-814) scale(1,1)"><path fill="none" stroke="#000000" d="M 954 913 L 1023 911" stroke-miterlimit="10"/></g><g transform="translate(-166,-814) scale(1,1)"><path fill="#FFFFFF" stroke="none" d="M 1002.9271107448432 920.0043943133455 L 1023 911 L 1002.4392556102279 903.1733921691163"/></g><g transform="translate(-166,-814) scale(1,1)"><path fill="none" stroke="#000000" d="M 1002.9271107448432 920.0043943133455 L 1023 911 L 1002.4392556102279 903.1733921691163 L 1002.9271107448432 920.0043943133455" stroke-miterlimit="10"/></g><g transform="translate(-166,-814) scale(1,1)"><path fill="none" stroke="#000000" d="M 705 914 L 799 914" stroke-miterlimit="10"/></g><g transform="translate(-166,-814) scale(1,1)"><path fill="#FFFFFF" stroke="none" d="M 778.6746502847517 922.419035512032 L 799 914 L 778.6746502847517 905.580964487968"/></g><g transform="translate(-166,-814) scale(1,1)"><path fill="none" stroke="#000000" d="M 778.6746502847517 922.419035512032 L 799 914 L 778.6746502847517 905.580964487968 L 778.6746502847517 922.419035512032" stroke-miterlimit="10"/></g><g transform="translate(-166,-814) scale(1,1)"><path fill="#ffffff" stroke="none" d="M 232 1032 L 429 1032 L 439 1042 L 439 1207 L 232 1207 L 232 1032"/></g><g transform="translate(-166,-814) scale(1,1)"><path fill="none" stroke="#000000" d="M 232 1032 L 429 1032 L 439 1042 L 439 1207 L 232 1207 L 232 1032 L 232 1032" stroke-miterlimit="10"/></g><g transform="translate(-166,-814) scale(1,1)"><path fill="none" stroke="#000000" d="M 429 1032 L 429 1042 L 439 1042 L 429 1032" stroke-miterlimit="10"/></g><g transform="translate(-166,-814) scale(1,1)"><path fill="#C0C0C0" stroke="none" d="M 339.011474609375 1082.5 C 339.011474609375 1076.1487248 344.160199409375 1071 350.511474609375 1071 C 356.862749809375 1071 362.011474609375 1076.1487248 362.011474609375 1082.5 C 362.011474609375 1088.8512752 356.862749809375 1094 350.511474609375 1094 C 344.160199409375 1094 339.011474609375 1088.8512752 339.011474609375 1082.5 Z" opacity="0.2"/></g><g transform="translate(-166,-814) scale(1,1)"><path fill="#ffffff" stroke="none" d="M 332.011474609375 1075.5 C 332.011474609375 1069.1487248 337.160199409375 1064 343.511474609375 1064 C 349.862749809375 1064 355.011474609375 1069.1487248 355.011474609375 1075.5 C 355.011474609375 1081.8512752 349.862749809375 1087 343.511474609375 1087 C 337.160199409375 1087 332.011474609375 1081.8512752 332.011474609375 1075.5 Z"/></g><g transform="translate(-166,-814) scale(1,1)"><path fill="none" stroke="#000000" d="M 332.011474609375 1075.5 C 332.011474609375 1069.1487248 337.160199409375 1064 343.511474609375 1064 C 349.862749809375 1064 355.011474609375 1069.1487248 355.011474609375 1075.5 C 355.011474609375 1081.8512752 349.862749809375 1087 343.511474609375 1087 C 337.160199409375 1087 332.011474609375 1081.8512752 332.011474609375 1075.5 Z" stroke-miterlimit="10"/></g><g transform="translate(-166,-814) scale(1,1)"><g><path fill="none" stroke="none"/><text fill="#000000" stroke="none" font-family="Arial" font-size="13px" font-style="normal" font-weight="bold" text-decoration="none" x="266.24462890625" y="1105">IConfigurationDbContext</text></g></g><g transform="translate(-166,-814) scale(1,1)"><path fill="none" stroke="#000000" d="M 518 973 L 355.011474609375 1071.2069027549342" stroke-miterlimit="10"/></g><g transform="translate(-166,-814) scale(1,1)"><path fill="#C0C0C0" stroke="none" d="M 341.5791015625 1162.5 C 341.5791015625 1156.1487248 346.7278263625 1151 353.0791015625 1151 C 359.4303767625 1151 364.5791015625 1156.1487248 364.5791015625 1162.5 C 364.5791015625 1168.8512752 359.4303767625 1174 353.0791015625 1174 C 346.7278263625 1174 341.5791015625 1168.8512752 341.5791015625 1162.5 Z" opacity="0.2"/></g><g transform="translate(-166,-814) scale(1,1)"><path fill="#ffffff" stroke="none" d="M 334.5791015625 1155.5 C 334.5791015625 1149.1487248 339.7278263625 1144 346.0791015625 1144 C 352.4303767625 1144 357.5791015625 1149.1487248 357.5791015625 1155.5 C 357.5791015625 1161.8512752 352.4303767625 1167 346.0791015625 1167 C 339.7278263625 1167 334.5791015625 1161.8512752 334.5791015625 1155.5 Z"/></g><g transform="translate(-166,-814) scale(1,1)"><path fill="none" stroke="#000000" d="M 334.5791015625 1155.5 C 334.5791015625 1149.1487248 339.7278263625 1144 346.0791015625 1144 C 352.4303767625 1144 357.5791015625 1149.1487248 357.5791015625 1155.5 C 357.5791015625 1161.8512752 352.4303767625 1167 346.0791015625 1167 C 339.7278263625 1167 334.5791015625 1161.8512752 334.5791015625 1155.5 Z" stroke-miterlimit="10"/></g><g transform="translate(-166,-814) scale(1,1)"><g><path fill="none" stroke="none"/><text fill="#000000" stroke="none" font-family="Arial" font-size="13px" font-style="normal" font-weight="bold" text-decoration="none" x="264.813232421875" y="1185">IPersistedGrantDbContext</text></g></g><g transform="translate(-166,-814) scale(1,1)"><path fill="none" stroke="#000000" d="M 547 973 L 357.5791015625 1149.6557992788462" stroke-miterlimit="10"/></g><g transform="translate(-166,-814) scale(1,1)"><path fill="#ffffff" stroke="none" d="M 456 1144 L 725 1144 L 735 1154 L 735 1239 L 456 1239 L 456 1144"/></g><g transform="translate(-166,-814) scale(1,1)"><path fill="none" stroke="#000000" d="M 456 1144 L 725 1144 L 735 1154 L 735 1239 L 456 1239 L 456 1144 L 456 1144" stroke-miterlimit="10"/></g><g transform="translate(-166,-814) scale(1,1)"><path fill="none" stroke="#000000" d="M 725 1144 L 725 1154 L 735 1154 L 725 1144" stroke-miterlimit="10"/></g><g transform="translate(-166,-814) scale(1,1)"><path fill="#C0C0C0" stroke="none" d="M 535.2353515625 1186.5 C 535.2353515625 1180.1487248 540.3840763625 1175 546.7353515625 1175 C 553.0866267625 1175 558.2353515625 1180.1487248 558.2353515625 1186.5 C 558.2353515625 1192.8512752 553.0866267625 1198 546.7353515625 1198 C 540.3840763625 1198 535.2353515625 1192.8512752 535.2353515625 1186.5 Z" opacity="0.2"/></g><g transform="translate(-166,-814) scale(1,1)"><path fill="#ffffff" stroke="none" d="M 528.2353515625 1179.5 C 528.2353515625 1173.1487248 533.3840763625 1168 539.7353515625 1168 C 546.0866267625 1168 551.2353515625 1173.1487248 551.2353515625 1179.5 C 551.2353515625 1185.8512752 546.0866267625 1191 539.7353515625 1191 C 533.3840763625 1191 528.2353515625 1185.8512752 528.2353515625 1179.5 Z"/></g><g transform="translate(-166,-814) scale(1,1)"><path fill="none" stroke="#000000" d="M 528.2353515625 1179.5 C 528.2353515625 1173.1487248 533.3840763625 1168 539.7353515625 1168 C 546.0866267625 1168 551.2353515625 1173.1487248 551.2353515625 1179.5 C 551.2353515625 1185.8512752 546.0866267625 1191 539.7353515625 1191 C 533.3840763625 1191 528.2353515625 1185.8512752 528.2353515625 1179.5 Z" stroke-miterlimit="10"/></g><g transform="translate(-166,-814) scale(1,1)"><g><path fill="none" stroke="none"/><text fill="#000000" stroke="none" font-family="Arial" font-size="13px" font-style="normal" font-weight="bold" text-decoration="none" x="479.419921875" y="1209">IEventStoreContext</text></g></g><g transform="translate(-166,-814) scale(1,1)"><path fill="none" stroke="#000000" d="M 593 973 L 544.5 1168" stroke-miterlimit="10"/></g><g transform="translate(-166,-814) scale(1,1)"><path fill="#C0C0C0" stroke="none" d="M 657.1201171875 1186.5 C 657.1201171875 1180.1487248 662.2688419875 1175 668.6201171875 1175 C 674.9713923875 1175 680.1201171875 1180.1487248 680.1201171875 1186.5 C 680.1201171875 1192.8512752 674.9713923875 1198 668.6201171875 1198 C 662.2688419875 1198 657.1201171875 1192.8512752 657.1201171875 1186.5 Z" opacity="0.2"/></g><g transform="translate(-166,-814) scale(1,1)"><path fill="#ffffff" stroke="none" d="M 650.1201171875 1179.5 C 650.1201171875 1173.1487248 655.2688419875 1168 661.6201171875 1168 C 667.9713923875 1168 673.1201171875 1173.1487248 673.1201171875 1179.5 C 673.1201171875 1185.8512752 667.9713923875 1191 661.6201171875 1191 C 655.2688419875 1191 650.1201171875 1185.8512752 650.1201171875 1179.5 Z"/></g><g transform="translate(-166,-814) scale(1,1)"><path fill="none" stroke="#000000" d="M 650.1201171875 1179.5 C 650.1201171875 1173.1487248 655.2688419875 1168 661.6201171875 1168 C 667.9713923875 1168 673.1201171875 1173.1487248 673.1201171875 1179.5 C 673.1201171875 1185.8512752 667.9713923875 1191 661.6201171875 1191 C 655.2688419875 1191 650.1201171875 1185.8512752 650.1201171875 1179.5 Z" stroke-miterlimit="10"/></g><g transform="translate(-166,-814) scale(1,1)"><g><path fill="none" stroke="none"/><text fill="#000000" stroke="none" font-family="Arial" font-size="13px" font-style="normal" font-weight="bold" text-decoration="none" x="621.893310546875" y="1209">ISSOContext</text></g></g><g transform="translate(-166,-814) scale(1,1)"><path fill="none" stroke="#000000" d="M 619 973 L 656.4166666666666 1168" stroke-miterlimit="10"/></g><g transform="translate(-166,-814) scale(1,1)"><path fill="#ffffff" stroke="none" d="M 760 1040 L 957 1040 L 967 1050 L 967 1223 L 760 1223 L 760 1040"/></g><g transform="translate(-166,-814) scale(1,1)"><path fill="none" stroke="#000000" d="M 760 1040 L 957 1040 L 967 1050 L 967 1223 L 760 1223 L 760 1040 L 760 1040" stroke-miterlimit="10"/></g><g transform="translate(-166,-814) scale(1,1)"><path fill="none" stroke="#000000" d="M 957 1040 L 957 1050 L 967 1050 L 957 1040" stroke-miterlimit="10"/></g><g transform="translate(-166,-814) scale(1,1)"><path fill="#C0C0C0" stroke="none" d="M 865.4384765625 1186.5 C 865.4384765625 1180.1487248 870.5872013625 1175 876.9384765625 1175 C 883.2897517625 1175 888.4384765625 1180.1487248 888.4384765625 1186.5 C 888.4384765625 1192.8512752 883.2897517625 1198 876.9384765625 1198 C 870.5872013625 1198 865.4384765625 1192.8512752 865.4384765625 1186.5 Z" opacity="0.2"/></g><g transform="translate(-166,-814) scale(1,1)"><path fill="#ffffff" stroke="none" d="M 858.4384765625 1179.5 C 858.4384765625 1173.1487248 863.5872013625 1168 869.9384765625 1168 C 876.2897517625 1168 881.4384765625 1173.1487248 881.4384765625 1179.5 C 881.4384765625 1185.8512752 876.2897517625 1191 869.9384765625 1191 C 863.5872013625 1191 858.4384765625 1185.8512752 858.4384765625 1179.5 Z"/></g><g transform="translate(-166,-814) scale(1,1)"><path fill="none" stroke="#000000" d="M 858.4384765625 1179.5 C 858.4384765625 1173.1487248 863.5872013625 1168 869.9384765625 1168 C 876.2897517625 1168 881.4384765625 1173.1487248 881.4384765625 1179.5 C 881.4384765625 1185.8512752 876.2897517625 1191 869.9384765625 1191 C 863.5872013625 1191 858.4384765625 1185.8512752 858.4384765625 1179.5 Z" stroke-miterlimit="10"/></g><g transform="translate(-166,-814) scale(1,1)"><g><path fill="none" stroke="none"/><text fill="#000000" stroke="none" font-family="Arial" font-size="13px" font-style="normal" font-weight="bold" text-decoration="none" x="785.784423828125" y="1209">IDataProtectionKeyContext</text></g></g><g transform="translate(-166,-814) scale(1,1)"><path fill="none" stroke="#000000" d="M 663 973 L 858.4384765625 1173.4896399456522" stroke-miterlimit="10"/></g><g transform="translate(-166,-814) scale(1,1)"><path fill="#C0C0C0" stroke="none" d="M 866.310791015625 1074.5 C 866.310791015625 1068.1487248 871.459515815625 1063 877.810791015625 1063 C 884.162066215625 1063 889.310791015625 1068.1487248 889.310791015625 1074.5 C 889.310791015625 1080.8512752 884.162066215625 1086 877.810791015625 1086 C 871.459515815625 1086 866.310791015625 1080.8512752 866.310791015625 1074.5 Z" opacity="0.2"/></g><g transform="translate(-166,-814) scale(1,1)"><path fill="#ffffff" stroke="none" d="M 859.310791015625 1067.5 C 859.310791015625 1061.1487248 864.459515815625 1056 870.810791015625 1056 C 877.162066215625 1056 882.310791015625 1061.1487248 882.310791015625 1067.5 C 882.310791015625 1073.8512752 877.162066215625 1079 870.810791015625 1079 C 864.459515815625 1079 859.310791015625 1073.8512752 859.310791015625 1067.5 Z"/></g><g transform="translate(-166,-814) scale(1,1)"><path fill="none" stroke="#000000" d="M 859.310791015625 1067.5 C 859.310791015625 1061.1487248 864.459515815625 1056 870.810791015625 1056 C 877.162066215625 1056 882.310791015625 1061.1487248 882.310791015625 1067.5 C 882.310791015625 1073.8512752 877.162066215625 1079 870.810791015625 1079 C 864.459515815625 1079 859.310791015625 1073.8512752 859.310791015625 1067.5 Z" stroke-miterlimit="10"/></g><g transform="translate(-166,-814) scale(1,1)"><g><path fill="none" stroke="none"/><text fill="#000000" stroke="none" font-family="Arial" font-size="13px" font-style="normal" font-weight="bold" text-decoration="none" x="807.23583984375" y="1097">ISecurityKeyContext</text></g></g><g transform="translate(-166,-814) scale(1,1)"><path fill="none" stroke="#000000" d="M 701 973 L 859.310791015625 1063.7110126201924" stroke-miterlimit="10"/></g><g transform="translate(-166,-814) scale(1,1)"><g><path fill="none" stroke="none"/><text fill="#000000" stroke="none" font-family="Arial" font-size="13px" font-style="normal" font-weight="normal" text-decoration="none" x="893" y="839">MiMicrosoft.AspNetCore.Identity</text></g></g><g transform="translate(-166,-814) scale(1,1)"><g><path fill="none" stroke="none"/><text fill="#000000" stroke="none" font-family="Arial" font-size="13px" font-style="normal" font-weight="normal" text-decoration="none" x="525" y="1263">Application Context</text></g></g><g transform="translate(-166,-814) scale(1,1)"><g><path fill="none" stroke="none"/><text fill="#000000" stroke="none" font-family="Arial" font-size="13px" font-style="normal" font-weight="normal" text-decoration="none" x="181" y="999">IDentityServer4.DbContext</text></g></g><g transform="translate(-166,-814) scale(1,1)"><g><path fill="none" stroke="none"/><text fill="#000000" stroke="none" font-family="Arial" font-size="13px" font-style="normal" font-weight="normal" text-decoration="none" x="869" y="1247">Microsoft.AspNetCore.DataProtection</text></g></g></g></svg>